STARTFONT 2.1
FONT -Bitstream-Swiss 742-Medium-R-Normal--19-140-85-85-P-110-ISO8859-1
SIZE 14 85 85
FONTBOUNDINGBOX 16 19 0 -4

STARTPROPERTIES 27
FONTNAME_REGISTRY ""
FAMILY_NAME "Swiss 742"
FOUNDRY "Bitstream"
WEIGHT_NAME "Medium"
SETWIDTH_NAME "Normal"
SLANT "R"
ADD_STYLE_NAME "Sans Serif"
PIXEL_SIZE 19
POINT_SIZE 140
RESOLUTION_X 85
RESOLUTION_Y 85
SPACING "P"
AVERAGE_WIDTH 110
CHARSET_REGISTRY "ISO8859"
CHARSET_ENCODING "1"
CAP_HEIGHT 12
X_HEIGHT 8
CHARSET_COLLECTIONS "ISO8859-1"
FULL_NAME "Swiss742"
COPYRIGHT "Copyright 1989 by Bitstream, Inc. All rights reserved."
NOTICE "Swiss 742 is a registered trademark of Bitstream, Inc."
NOTICE "This Font is licensed for use on Hewlett-Packard Equipment only."
WEIGHT 10
QUAD_WIDTH 10
DEFAULT_CHAR 0
FONT_DESCENT 4
FONT_ASCENT 15
ENDPROPERTIES

CHARS 191

STARTCHAR PrintableSpace
ENCODING 32
SWIDTH 277 0
DWIDTH 5 0
BBX 1 1 0 0
BITMAP
00
ENDCHAR

STARTCHAR Exclamation
ENCODING 33
SWIDTH 370 0
DWIDTH 6 0
BBX 2 14 2 -1
BITMAP
C0
C0
C0
C0
C0
C0
C0
C0
C0
C0
00
00
C0
C0
ENDCHAR

STARTCHAR NeutrlDblQuote
ENCODING 34
SWIDTH 300 0
DWIDTH 5 0
BBX 3 4 1 9
BITMAP
A0
A0
A0
A0
ENDCHAR

STARTCHAR NumberSign
ENCODING 35
SWIDTH 769 0
DWIDTH 12 0
BBX 12 14 0 -1
BITMAP
0CC0
0CC0
0CC0
0CC0
7FF0
1980
1980
1980
1980
FFE0
3300
3300
3300
3300
ENDCHAR

STARTCHAR DollarSign
ENCODING 36
SWIDTH 553 0
DWIDTH 10 0
BBX 8 16 1 -2
BITMAP
08
08
3C
6E
CB
C8
C8
78
1E
13
13
D3
76
3C
10
10
ENDCHAR

STARTCHAR PerCentSign
ENCODING 37
SWIDTH 984 0
DWIDTH 15 0
BBX 13 14 1 -1
BITMAP
7060
D840
88C0
8880
D980
7100
0300
0600
0470
0CD8
0888
1888
10D8
3070
ENDCHAR

STARTCHAR Ampersand
ENCODING 38
SWIDTH 606 0
DWIDTH 11 0
BBX 9 14 1 -1
BITMAP
3E00
6000
C000
C000
C300
6300
3F80
6300
C300
C300
C300
C300
E300
7F00
ENDCHAR

STARTCHAR SingleCloseQut
ENCODING 39
SWIDTH 255 0
DWIDTH 5 0
BBX 3 4 1 9
BITMAP
60
60
C0
80
ENDCHAR

STARTCHAR OpenParen
ENCODING 40
SWIDTH 315 0
DWIDTH 7 0
BBX 4 16 2 -2
BITMAP
10
30
60
60
C0
C0
C0
C0
C0
C0
C0
C0
60
60
30
10
ENDCHAR

STARTCHAR CloseParen
ENCODING 41
SWIDTH 315 0
DWIDTH 7 0
BBX 4 16 1 -2
BITMAP
80
C0
60
60
30
30
30
30
30
30
30
30
60
60
C0
80
ENDCHAR

STARTCHAR Asterisk
ENCODING 42
SWIDTH 528 0
DWIDTH 14 0
BBX 10 11 2 0
BITMAP
0C00
0C00
CCC0
EDC0
7F80
1E00
7F80
EDC0
CCC0
0C00
0C00
ENDCHAR

STARTCHAR PlusSign
ENCODING 43
SWIDTH 833 0
DWIDTH 14 0
BBX 10 10 2 0
BITMAP
0C00
0C00
0C00
0C00
FFC0
FFC0
0C00
0C00
0C00
0C00
ENDCHAR

STARTCHAR Comma
ENCODING 44
SWIDTH 277 0
DWIDTH 5 0
BBX 3 4 1 -2
BITMAP
60
60
C0
80
ENDCHAR

STARTCHAR Hyphen
ENCODING 45
SWIDTH 331 0
DWIDTH 14 0
BBX 10 2 2 4
BITMAP
FFC0
FFC0
ENDCHAR

STARTCHAR Period
ENCODING 46
SWIDTH 277 0
DWIDTH 5 0
BBX 2 2 2 0
BITMAP
C0
C0
ENDCHAR

STARTCHAR Slash
ENCODING 47
SWIDTH 370 0
DWIDTH 8 0
BBX 7 16 1 -2
BITMAP
06
06
0C
0C
0C
18
18
18
30
30
30
60
60
60
C0
C0
ENDCHAR

STARTCHAR Zero
ENCODING 48
SWIDTH 553 0
DWIDTH 10 0
BBX 8 12 1 0
BITMAP
3C
66
42
C3
C3
C3
C3
C3
C3
42
66
3C
ENDCHAR

STARTCHAR One
ENCODING 49
SWIDTH 553 0
DWIDTH 9 0
BBX 4 12 2 0
BITMAP
30
70
F0
B0
30
30
30
30
30
30
30
30
ENDCHAR

STARTCHAR Two
ENCODING 50
SWIDTH 553 0
DWIDTH 10 0
BBX 8 12 1 0
BITMAP
3C
66
C3
C3
03
06
0C
18
30
60
C0
FF
ENDCHAR

STARTCHAR Three
ENCODING 51
SWIDTH 553 0
DWIDTH 10 0
BBX 8 12 1 0
BITMAP
3C
66
C3
C3
06
1C
06
03
C3
C3
66
3C
ENDCHAR

STARTCHAR Four
ENCODING 52
SWIDTH 553 0
DWIDTH 10 0
BBX 8 12 1 0
BITMAP
06
0E
0E
16
36
26
46
C6
FF
06
06
06
ENDCHAR

STARTCHAR Five
ENCODING 53
SWIDTH 553 0
DWIDTH 10 0
BBX 8 12 1 0
BITMAP
FE
C0
C0
C0
DC
E6
C3
03
03
C3
66
3C
ENDCHAR

STARTCHAR Six
ENCODING 54
SWIDTH 553 0
DWIDTH 10 0
BBX 8 12 1 0
BITMAP
3C
66
43
C0
DC
E6
C3
C3
C3
C3
66
3C
ENDCHAR

STARTCHAR Seven
ENCODING 55
SWIDTH 553 0
DWIDTH 10 0
BBX 8 12 1 0
BITMAP
FF
03
06
06
0C
0C
18
18
18
30
30
30
ENDCHAR

STARTCHAR Eight
ENCODING 56
SWIDTH 553 0
DWIDTH 10 0
BBX 8 12 1 0
BITMAP
3C
66
C3
C3
66
3C
66
C3
C3
C3
66
3C
ENDCHAR

STARTCHAR Nine
ENCODING 57
SWIDTH 553 0
DWIDTH 10 0
BBX 8 12 1 0
BITMAP
3C
66
C3
C3
C3
C3
67
3B
03
C2
66
3C
ENDCHAR

STARTCHAR Colon
ENCODING 58
SWIDTH 370 0
DWIDTH 6 0
BBX 2 8 2 0
BITMAP
C0
C0
00
00
00
00
C0
C0
ENDCHAR

STARTCHAR Simicolon
ENCODING 59
SWIDTH 370 0
DWIDTH 6 0
BBX 3 10 1 -2
BITMAP
60
60
00
00
00
00
60
60
C0
80
ENDCHAR

STARTCHAR LessThanSign
ENCODING 60
SWIDTH 833 0
DWIDTH 14 0
BBX 10 10 2 0
BITMAP
00C0
03C0
0F00
3C00
F000
F000
3C00
0F00
03C0
00C0
ENDCHAR

STARTCHAR EqualsSign
ENCODING 61
SWIDTH 833 0
DWIDTH 14 0
BBX 10 6 2 2
BITMAP
FFC0
FFC0
0000
0000
FFC0
FFC0
ENDCHAR

STARTCHAR GreatrThanSign
ENCODING 62
SWIDTH 833 0
DWIDTH 14 0
BBX 10 10 2 0
BITMAP
C000
F000
3C00
0F00
03C0
03C0
0F00
3C00
F000
C000
ENDCHAR

STARTCHAR QuestionMark
ENCODING 63
SWIDTH 491 0
DWIDTH 9 0
BBX 7 14 1 -1
BITMAP
7C
C6
C6
06
06
0C
18
30
30
30
00
00
30
30
ENDCHAR

STARTCHAR CommerclAtSign
ENCODING 64
SWIDTH 1000 0
DWIDTH 16 0
BBX 12 14 2 -1
BITMAP
0F80
38C0
6060
6060
C7E0
CC60
CC60
CC60
CC60
CC60
67B0
6000
3800
0FC0
ENDCHAR

STARTCHAR A
ENCODING 65
SWIDTH 713 0
DWIDTH 12 0
BBX 12 12 0 0
BITMAP
0600
0600
0F00
0900
1980
1980
1080
30C0
3FC0
6060
6060
C030
ENDCHAR

STARTCHAR B
ENCODING 66
SWIDTH 641 0
DWIDTH 11 0
BBX 9 12 1 0
BITMAP
FE00
C300
C180
C180
C300
FE00
C300
C180
C180
C180
C300
FE00
ENDCHAR

STARTCHAR C
ENCODING 67
SWIDTH 662 0
DWIDTH 12 0
BBX 10 12 1 0
BITMAP
1F00
71C0
60C0
C000
C000
C000
C000
C000
C000
60C0
71C0
1F00
ENDCHAR

STARTCHAR D
ENCODING 68
SWIDTH 718 0
DWIDTH 12 0
BBX 10 12 1 0
BITMAP
FE00
C380
C180
C0C0
C0C0
C0C0
C0C0
C0C0
C0C0
C180
C380
FE00
ENDCHAR

STARTCHAR E
ENCODING 69
SWIDTH 604 0
DWIDTH 10 0
BBX 8 12 1 0
BITMAP
FF
C0
C0
C0
C0
FF
C0
C0
C0
C0
C0
FF
ENDCHAR

STARTCHAR F
ENCODING 70
SWIDTH 550 0
DWIDTH 9 0
BBX 7 12 1 0
BITMAP
FE
C0
C0
C0
C0
FE
C0
C0
C0
C0
C0
C0
ENDCHAR

STARTCHAR G
ENCODING 71
SWIDTH 744 0
DWIDTH 12 0
BBX 10 12 1 0
BITMAP
1F00
71C0
60C0
C000
C000
C000
C7C0
C0C0
C0C0
60C0
70C0
1F80
ENDCHAR

STARTCHAR H
ENCODING 72
SWIDTH 714 0
DWIDTH 12 0
BBX 10 12 1 0
BITMAP
C0C0
C0C0
C0C0
C0C0
C0C0
FFC0
C0C0
C0C0
C0C0
C0C0
C0C0
C0C0
ENDCHAR

STARTCHAR I
ENCODING 73
SWIDTH 263 0
DWIDTH 4 0
BBX 2 12 1 0
BITMAP
C0
C0
C0
C0
C0
C0
C0
C0
C0
C0
C0
C0
ENDCHAR

STARTCHAR J
ENCODING 74
SWIDTH 528 0
DWIDTH 9 0
BBX 7 12 1 0
BITMAP
06
06
06
06
06
06
06
06
06
C6
C6
7C
ENDCHAR

STARTCHAR K
ENCODING 75
SWIDTH 650 0
DWIDTH 11 0
BBX 9 12 1 0
BITMAP
C180
C300
C600
CC00
D800
F000
F000
D800
CC00
C600
C300
C180
ENDCHAR

STARTCHAR L
ENCODING 76
SWIDTH 535 0
DWIDTH 9 0
BBX 7 12 1 0
BITMAP
C0
C0
C0
C0
C0
C0
C0
C0
C0
C0
C0
FE
ENDCHAR

STARTCHAR M
ENCODING 77
SWIDTH 909 0
DWIDTH 14 0
BBX 12 12 1 0
BITMAP
C030
C030
E070
E070
F0F0
D0B0
D9B0
C930
CF30
C630
C630
C030
ENDCHAR

STARTCHAR N
ENCODING 78
SWIDTH 734 0
DWIDTH 12 0
BBX 10 12 1 0
BITMAP
C0C0
E0C0
E0C0
F0C0
D8C0
CCC0
CCC0
C6C0
C3C0
C1C0
C1C0
C0C0
ENDCHAR

STARTCHAR O
ENCODING 79
SWIDTH 771 0
DWIDTH 13 0
BBX 11 12 1 0
BITMAP
1F00
71C0
60C0
C060
C060
C060
C060
C060
C060
60C0
71C0
1F00
ENDCHAR

STARTCHAR P
ENCODING 80
SWIDTH 603 0
DWIDTH 10 0
BBX 8 12 1 0
BITMAP
FC
C6
C3
C3
C3
C6
FC
C0
C0
C0
C0
C0
ENDCHAR

STARTCHAR Q
ENCODING 81
SWIDTH 771 0
DWIDTH 13 0
BBX 11 13 1 -1
BITMAP
1F00
71C0
60C0
C060
C060
C060
C060
C060
C060
66C0
73C0
1F80
00C0
ENDCHAR

STARTCHAR R
ENCODING 82
SWIDTH 648 0
DWIDTH 10 0
BBX 8 12 1 0
BITMAP
FC
C6
C3
C3
C3
C6
FE
C3
C3
C3
C3
C3
ENDCHAR

STARTCHAR S
ENCODING 83
SWIDTH 656 0
DWIDTH 11 0
BBX 9 12 1 0
BITMAP
3C00
6700
C300
C000
E000
7C00
1F00
0380
0180
C180
E300
3E00
ENDCHAR

STARTCHAR T
ENCODING 84
SWIDTH 603 0
DWIDTH 10 0
BBX 10 12 0 0
BITMAP
FFC0
0C00
0C00
0C00
0C00
0C00
0C00
0C00
0C00
0C00
0C00
0C00
ENDCHAR

STARTCHAR U
ENCODING 85
SWIDTH 728 0
DWIDTH 12 0
BBX 10 12 1 0
BITMAP
C0C0
C0C0
C0C0
C0C0
C0C0
C0C0
C0C0
C0C0
C0C0
6180
7380
1E00
ENDCHAR

STARTCHAR V
ENCODING 86
SWIDTH 657 0
DWIDTH 14 0
BBX 12 12 1 0
BITMAP
C030
6060
6060
30C0
30C0
1080
1980
1980
0900
0F00
0600
0600
ENDCHAR

STARTCHAR W
ENCODING 87
SWIDTH 977 0
DWIDTH 17 0
BBX 15 12 1 0
BITMAP
C106
C106
C386
638C
628C
66CC
36D8
3458
3458
1C70
1830
1830
ENDCHAR

STARTCHAR X
ENCODING 88
SWIDTH 700 0
DWIDTH 13 0
BBX 13 12 0 0
BITMAP
C018
6030
3060
18C0
0D80
0700
0700
0D80
18C0
3060
6030
C018
ENDCHAR

STARTCHAR Y
ENCODING 89
SWIDTH 657 0
DWIDTH 12 0
BBX 10 12 1 0
BITMAP
C0C0
C0C0
6180
3300
3300
1E00
0C00
0C00
0C00
0C00
0C00
0C00
ENDCHAR

STARTCHAR Z
ENCODING 90
SWIDTH 602 0
DWIDTH 11 0
BBX 9 12 1 0
BITMAP
FF80
0180
0300
0600
0600
0C00
1800
3000
3000
6000
C000
FF80
ENDCHAR

STARTCHAR OpenBracket
ENCODING 91
SWIDTH 315 0
DWIDTH 7 0
BBX 4 16 2 -2
BITMAP
F0
C0
C0
C0
C0
C0
C0
C0
C0
C0
C0
C0
C0
C0
C0
F0
ENDCHAR

STARTCHAR BackSlash
ENCODING 92
SWIDTH 370 0
DWIDTH 8 0
BBX 7 16 1 -2
BITMAP
C0
C0
60
60
60
30
30
30
18
18
18
0C
0C
0C
06
06
ENDCHAR

STARTCHAR CloseBracket
ENCODING 93
SWIDTH 315 0
DWIDTH 7 0
BBX 4 16 1 -2
BITMAP
F0
30
30
30
30
30
30
30
30
30
30
30
30
30
30
F0
ENDCHAR

STARTCHAR Circumflex
ENCODING 94
SWIDTH 1000 0
DWIDTH 16 0
BBX 9 4 4 8
BITMAP
1C00
3600
6300
C180
ENDCHAR

STARTCHAR Underscore
ENCODING 95
SWIDTH 500 0
DWIDTH 8 0
BBX 8 2 0 -2
BITMAP
FF
FF
ENDCHAR

STARTCHAR SingleOpenQuot
ENCODING 96
SWIDTH 255 0
DWIDTH 5 0
BBX 3 4 1 9
BITMAP
20
60
C0
C0
ENDCHAR

STARTCHAR a
ENCODING 97
SWIDTH 531 0
DWIDTH 9 0
BBX 7 8 1 0
BITMAP
3C
66
06
7E
C6
C6
CE
76
ENDCHAR

STARTCHAR b
ENCODING 98
SWIDTH 602 0
DWIDTH 10 0
BBX 8 12 1 0
BITMAP
C0
C0
C0
C0
DC
E6
C3
C3
C3
C3
E6
DC
ENDCHAR

STARTCHAR c
ENCODING 99
SWIDTH 516 0
DWIDTH 9 0
BBX 7 8 1 0
BITMAP
3C
66
C2
C0
C0
C2
66
3C
ENDCHAR

STARTCHAR d
ENCODING 100
SWIDTH 602 0
DWIDTH 10 0
BBX 8 12 1 0
BITMAP
03
03
03
03
3B
67
C3
C3
C3
C3
67
3B
ENDCHAR

STARTCHAR e
ENCODING 101
SWIDTH 551 0
DWIDTH 10 0
BBX 8 8 1 0
BITMAP
3C
66
C3
FF
C0
C3
66
3C
ENDCHAR

STARTCHAR f
ENCODING 102
SWIDTH 308 0
DWIDTH 5 0
BBX 5 12 0 0
BITMAP
38
60
60
60
F8
60
60
60
60
60
60
60
ENDCHAR

STARTCHAR g
ENCODING 103
SWIDTH 593 0
DWIDTH 10 0
BBX 8 11 1 -3
BITMAP
3B
67
C3
C3
C3
C3
67
3B
03
66
3C
ENDCHAR

STARTCHAR h
ENCODING 104
SWIDTH 588 0
DWIDTH 10 0
BBX 8 12 1 0
BITMAP
C0
C0
C0
C0
DE
E3
C3
C3
C3
C3
C3
C3
ENDCHAR

STARTCHAR i
ENCODING 105
SWIDTH 250 0
DWIDTH 4 0
BBX 2 12 1 0
BITMAP
C0
C0
00
00
C0
C0
C0
C0
C0
C0
C0
C0
ENDCHAR

STARTCHAR j
ENCODING 106
SWIDTH 250 0
DWIDTH 4 0
BBX 3 15 0 -3
BITMAP
60
60
00
00
60
60
60
60
60
60
60
60
60
60
C0
ENDCHAR

STARTCHAR k
ENCODING 107
SWIDTH 492 0
DWIDTH 9 0
BBX 7 12 1 0
BITMAP
C0
C0
C0
C0
C6
CC
D8
F0
F0
D8
CC
C6
ENDCHAR

STARTCHAR l
ENCODING 108
SWIDTH 250 0
DWIDTH 4 0
BBX 2 12 1 0
BITMAP
C0
C0
C0
C0
C0
C0
C0
C0
C0
C0
C0
C0
ENDCHAR

STARTCHAR m
ENCODING 109
SWIDTH 913 0
DWIDTH 14 0
BBX 12 8 1 0
BITMAP
DDE0
E730
C630
C630
C630
C630
C630
C630
ENDCHAR

STARTCHAR n
ENCODING 110
SWIDTH 588 0
DWIDTH 10 0
BBX 8 8 1 0
BITMAP
DE
E3
C3
C3
C3
C3
C3
C3
ENDCHAR

STARTCHAR o
ENCODING 111
SWIDTH 602 0
DWIDTH 10 0
BBX 8 8 1 0
BITMAP
3C
66
C3
C3
C3
C3
66
3C
ENDCHAR

STARTCHAR p
ENCODING 112
SWIDTH 602 0
DWIDTH 10 0
BBX 8 11 1 -3
BITMAP
DC
E6
C3
C3
C3
C3
E6
DC
C0
C0
C0
ENDCHAR

STARTCHAR q
ENCODING 113
SWIDTH 602 0
DWIDTH 10 0
BBX 8 11 1 -3
BITMAP
3B
67
C3
C3
C3
C3
67
3B
03
03
03
ENDCHAR

STARTCHAR r
ENCODING 114
SWIDTH 370 0
DWIDTH 6 0
BBX 5 8 1 0
BITMAP
D8
E0
C0
C0
C0
C0
C0
C0
ENDCHAR

STARTCHAR s
ENCODING 115
SWIDTH 491 0
DWIDTH 9 0
BBX 7 8 1 0
BITMAP
7C
C6
C0
70
1C
06
C6
7C
ENDCHAR

STARTCHAR t
ENCODING 116
SWIDTH 317 0
DWIDTH 5 0
BBX 5 11 0 0
BITMAP
20
60
60
F8
60
60
60
60
60
60
38
ENDCHAR

STARTCHAR u
ENCODING 117
SWIDTH 588 0
DWIDTH 10 0
BBX 8 8 1 0
BITMAP
C3
C3
C3
C3
C3
C3
C7
7B
ENDCHAR

STARTCHAR v
ENCODING 118
SWIDTH 543 0
DWIDTH 10 0
BBX 8 8 1 0
BITMAP
C3
C3
66
66
24
3C
18
18
ENDCHAR

STARTCHAR w
ENCODING 119
SWIDTH 810 0
DWIDTH 12 0
BBX 12 8 0 0
BITMAP
C630
C630
4620
6F60
6960
39C0
30C0
30C0
ENDCHAR

STARTCHAR x
ENCODING 120
SWIDTH 546 0
DWIDTH 9 0
BBX 9 8 0 0
BITMAP
C180
6300
3600
1C00
1C00
3600
6300
C180
ENDCHAR

STARTCHAR y
ENCODING 121
SWIDTH 543 0
DWIDTH 10 0
BBX 8 11 1 -3
BITMAP
C3
C3
66
66
24
3C
18
18
18
30
30
ENDCHAR

STARTCHAR z
ENCODING 122
SWIDTH 439 0
DWIDTH 8 0
BBX 6 8 1 0
BITMAP
FC
0C
18
30
30
60
C0
FC
ENDCHAR

STARTCHAR OpenBrace
ENCODING 123
SWIDTH 500 0
DWIDTH 8 0
BBX 6 16 1 -2
BITMAP
1C
30
30
30
30
30
20
C0
20
30
30
30
30
30
30
1C
ENDCHAR

STARTCHAR LongVertMark
ENCODING 124
SWIDTH 500 0
DWIDTH 6 0
BBX 2 14 2 -1
BITMAP
C0
C0
C0
C0
C0
C0
C0
C0
C0
C0
C0
C0
C0
C0
ENDCHAR

STARTCHAR CloseBrace
ENCODING 125
SWIDTH 500 0
DWIDTH 8 0
BBX 6 16 1 -2
BITMAP
E0
30
30
30
30
30
10
0C
10
30
30
30
30
30
30
E0
ENDCHAR

STARTCHAR OneWavyLine
ENCODING 126
SWIDTH 833 0
DWIDTH 13 0
BBX 11 5 1 2
BITMAP
3000
7C60
FFE0
C7C0
0180
ENDCHAR

STARTCHAR MediumShading
ENCODING 127
SWIDTH 1000 0
DWIDTH 16 0
BBX 16 19 0 -4
BITMAP
CCCC
CCCC
3333
3333
CCCC
CCCC
3333
3333
CCCC
CCCC
3333
3333
CCCC
CCCC
3333
3333
CCCC
CCCC
3333
ENDCHAR

STARTCHAR InvExclamation
ENCODING 161
SWIDTH 370 0
DWIDTH 6 0
BBX 2 14 2 -1
BITMAP
C0
C0
00
00
C0
C0
C0
C0
C0
C0
C0
C0
C0
C0
ENDCHAR

STARTCHAR CentSign
ENCODING 162
SWIDTH 553 0
DWIDTH 10 0
BBX 7 12 1 -2
BITMAP
04
04
3C
6E
CA
C8
D8
D2
76
3C
20
20
ENDCHAR

STARTCHAR SterlingSign
ENCODING 163
SWIDTH 370 0
DWIDTH 10 0
BBX 8 12 1 0
BITMAP
1E
33
63
60
60
FC
60
60
FC
60
60
FF
ENDCHAR

STARTCHAR CurrencySymbol
ENCODING 164
SWIDTH 606 0
DWIDTH 12 0
BBX 10 10 1 2
BITMAP
4080
EDC0
7F80
3300
6180
6180
3300
7F80
EDC0
4080
ENDCHAR

STARTCHAR Yensign
ENCODING 165
SWIDTH 606 0
DWIDTH 10 0
BBX 10 12 0 0
BITMAP
C0C0
6180
6180
3300
F3C0
1E00
0C00
FFC0
0C00
0C00
0C00
0C00
ENDCHAR

STARTCHAR BrokenBar
ENCODING 166
SWIDTH 500 0
DWIDTH 6 0
BBX 2 19 2 -4
BITMAP
00
00
C0
C0
C0
C0
C0
C0
00
00
C0
C0
C0
C0
C0
C0
00
00
00
ENDCHAR

STARTCHAR SectionMark
ENCODING 167
SWIDTH 528 0
DWIDTH 8 0
BBX 6 12 1 0
BITMAP
78
8C
C0
70
D8
8C
C4
6C
38
0C
C4
78
ENDCHAR

STARTCHAR diaeresisAccnt
ENCODING 168
SWIDTH 500 0
DWIDTH 8 0
BBX 4 2 3 9
BITMAP
90
90
ENDCHAR

STARTCHAR CopyrightSign
ENCODING 169
SWIDTH 516 0
DWIDTH 10 0
BBX 8 19 1 -4
BITMAP
00
00
00
3C
42
9D
A5
A1
9D
42
3C
00
00
00
00
00
00
00
00
ENDCHAR

STARTCHAR FemaleOrdinal
ENCODING 170
SWIDTH 370 0
DWIDTH 8 0
BBX 6 8 1 4
BITMAP
78
0C
7C
CC
CC
7C
00
FC
ENDCHAR

STARTCHAR DblOpenAnglQut
ENCODING 171
SWIDTH 489 0
DWIDTH 9 0
BBX 7 7 1 1
BITMAP
22
66
CC
88
CC
66
22
ENDCHAR

STARTCHAR NotSign
ENCODING 172
SWIDTH 331 0
DWIDTH 14 0
BBX 10 19 2 -4
BITMAP
0000
0000
0000
0000
0000
0000
0000
0000
0000
FFC0
FFC0
00C0
00C0
00C0
00C0
0000
0000
0000
0000
ENDCHAR

STARTCHAR SoftHyphen
ENCODING 173
SWIDTH 331 0
DWIDTH 14 0
BBX 10 19 2 -4
BITMAP
0000
0000
0000
0000
0000
0000
0000
0000
0000
3F00
3F00
0000
0000
0000
0000
0000
0000
0000
0000
ENDCHAR

STARTCHAR RegTradeMark
ENCODING 174
SWIDTH 516 0
DWIDTH 10 0
BBX 8 19 1 -4
BITMAP
00
00
00
3C
42
B9
A5
B9
A5
42
3C
00
00
00
00
00
00
00
00
ENDCHAR

STARTCHAR Macron
ENCODING 175
SWIDTH 331 0
DWIDTH 14 0
BBX 10 19 2 -4
BITMAP
0000
0000
0000
7F80
0000
0000
0000
0000
0000
0000
0000
0000
0000
0000
0000
0000
0000
0000
0000
ENDCHAR

STARTCHAR DegreeSign
ENCODING 176
SWIDTH 329 0
DWIDTH 8 0
BBX 6 5 1 7
BITMAP
78
CC
CC
CC
78
ENDCHAR

STARTCHAR PlusOverMinus
ENCODING 177
SWIDTH 833 0
DWIDTH 14 0
BBX 10 11 2 0
BITMAP
0C00
0C00
0C00
FFC0
FFC0
0C00
0C00
0C00
0000
FFC0
FFC0
ENDCHAR

STARTCHAR SuperscriptTwo
ENCODING 178
SWIDTH 864 0
DWIDTH 7 0
BBX 5 19 1 -4
BITMAP
00
00
00
70
88
08
10
20
40
F8
00
00
00
00
00
00
00
00
00
ENDCHAR

STARTCHAR Superscript3
ENCODING 179
SWIDTH 864 0
DWIDTH 7 0
BBX 5 19 1 -4
BITMAP
00
00
00
70
88
08
30
08
88
70
00
00
00
00
00
00
00
00
00
ENDCHAR

STARTCHAR acuteAccent
ENCODING 180
SWIDTH 500 0
DWIDTH 8 0
BBX 3 3 4 9
BITMAP
60
40
80
ENDCHAR

STARTCHAR muGreek
ENCODING 181
SWIDTH 563 0
DWIDTH 10 0
BBX 10 12 0 -4
BITMAP
3180
3180
3180
2100
2100
6300
7340
5D80
4000
C000
C000
C000
ENDCHAR

STARTCHAR ParagraphSign
ENCODING 182
SWIDTH 500 0
DWIDTH 9 0
BBX 8 12 1 0
BITMAP
7F
F2
F2
F2
72
12
12
12
12
12
12
12
ENDCHAR

STARTCHAR middleDot
ENCODING 183
SWIDTH 370 0
DWIDTH 8 0
BBX 1 2 4 5
BITMAP
80
80
ENDCHAR

STARTCHAR Cedilla
ENCODING 184
SWIDTH 662 0
DWIDTH 12 0
BBX 10 19 1 -4
BITMAP
0000
0000
0000
0000
0000
0000
0000
0000
0000
0000
0000
0000
0000
0000
0000
0400
0600
1100
0E00
ENDCHAR

STARTCHAR SuperscriptOne
ENCODING 185
SWIDTH 864 0
DWIDTH 6 0
BBX 3 19 2 -4
BITMAP
00
00
00
60
A0
20
20
20
20
20
00
00
00
00
00
00
00
00
00
ENDCHAR

STARTCHAR MaleOrdinal
ENCODING 186
SWIDTH 370 0
DWIDTH 8 0
BBX 6 8 1 4
BITMAP
78
CC
CC
CC
CC
78
00
FC
ENDCHAR

STARTCHAR DblClosAnglQut
ENCODING 187
SWIDTH 489 0
DWIDTH 9 0
BBX 7 7 1 1
BITMAP
88
CC
66
22
66
CC
88
ENDCHAR

STARTCHAR FracOneFourth
ENCODING 188
SWIDTH 864 0
DWIDTH 15 0
BBX 12 12 2 0
BITMAP
6080
A180
2100
2300
2200
2620
2460
0CA0
0920
19F0
1020
3020
ENDCHAR

STARTCHAR FracOneHalf
ENCODING 189
SWIDTH 864 0
DWIDTH 15 0
BBX 13 12 1 0
BITMAP
6080
A180
2100
2300
2200
2670
2488
0C08
0810
1820
1040
30F8
ENDCHAR

STARTCHAR FracThreeFour
ENCODING 190
SWIDTH 864 0
DWIDTH 15 0
BBX 13 12 1 0
BITMAP
7040
88C0
0880
3180
0900
8B10
7230
0650
0490
0CF8
0810
1810
ENDCHAR

STARTCHAR InvertQuestion
ENCODING 191
SWIDTH 491 0
DWIDTH 9 0
BBX 7 14 1 -1
BITMAP
18
18
00
00
18
18
18
30
60
C0
C0
C6
C6
7C
ENDCHAR

STARTCHAR Agrave
ENCODING 192
SWIDTH 713 0
DWIDTH 12 0
BBX 12 15 0 0
BITMAP
0C00
0400
0200
0000
0600
0F00
0900
1980
1980
1080
30C0
3FC0
6060
6060
C030
ENDCHAR

STARTCHAR Aacute
ENCODING 193
SWIDTH 713 0
DWIDTH 12 0
BBX 12 15 0 0
BITMAP
0300
0200
0400
0000
0600
0F00
0900
1980
1980
1080
30C0
3FC0
6060
6060
C030
ENDCHAR

STARTCHAR Acircumflex
ENCODING 194
SWIDTH 713 0
DWIDTH 12 0
BBX 12 15 0 0
BITMAP
0600
0F00
1080
0000
0600
0F00
0900
1980
1980
1080
30C0
3FC0
6060
6060
C030
ENDCHAR

STARTCHAR Atilde
ENCODING 195
SWIDTH 713 0
DWIDTH 12 0
BBX 12 14 0 0
BITMAP
0C80
1300
0000
0600
0F00
0900
1980
1980
1080
30C0
3FC0
6060
6060
C030
ENDCHAR

STARTCHAR Adiaeresis
ENCODING 196
SWIDTH 713 0
DWIDTH 12 0
BBX 12 14 0 0
BITMAP
0900
0900
0000
0600
0F00
0900
1980
1980
1080
30C0
3FC0
6060
6060
C030
ENDCHAR

STARTCHAR Abolle
ENCODING 197
SWIDTH 713 0
DWIDTH 12 0
BBX 12 15 0 0
BITMAP
0600
0900
0900
0600
0600
0F00
0900
1980
1980
1080
30C0
3FC0
6060
6060
C030
ENDCHAR

STARTCHAR AEdiphthong
ENCODING 198
SWIDTH 984 0
DWIDTH 17 0
BBX 15 12 1 0
BITMAP
07FE
0780
0D80
0D80
1980
19FE
3180
3180
7F80
6180
C180
C1FE
ENDCHAR

STARTCHAR Ccedilla
ENCODING 199
SWIDTH 662 0
DWIDTH 12 0
BBX 10 16 1 -4
BITMAP
1F00
71C0
60C0
C000
C000
C000
C000
C000
C000
60C0
71C0
1F00
0400
0600
1100
0E00
ENDCHAR

STARTCHAR Egrave
ENCODING 200
SWIDTH 604 0
DWIDTH 10 0
BBX 8 15 1 0
BITMAP
30
10
08
00
FF
C0
C0
C0
FF
C0
C0
C0
C0
C0
FF
ENDCHAR

STARTCHAR Eacute
ENCODING 201
SWIDTH 604 0
DWIDTH 10 0
BBX 8 15 1 0
BITMAP
0C
08
10
00
FF
C0
C0
C0
FF
C0
C0
C0
C0
C0
FF
ENDCHAR

STARTCHAR Ecircumflex
ENCODING 202
SWIDTH 604 0
DWIDTH 10 0
BBX 8 15 1 0
BITMAP
18
3C
42
00
FF
C0
C0
C0
FF
C0
C0
C0
C0
C0
FF
ENDCHAR

STARTCHAR Ediaeresis
ENCODING 203
SWIDTH 604 0
DWIDTH 10 0
BBX 8 14 1 0
BITMAP
24
24
00
FF
C0
C0
C0
FF
C0
C0
C0
C0
C0
FF
ENDCHAR

STARTCHAR Igrave
ENCODING 204
SWIDTH 263 0
DWIDTH 4 0
BBX 3 15 0 0
BITMAP
C0
40
20
00
60
60
60
60
60
60
60
60
60
60
60
ENDCHAR

STARTCHAR Iacute
ENCODING 205
SWIDTH 263 0
DWIDTH 4 0
BBX 3 15 1 0
BITMAP
60
40
80
00
C0
C0
C0
C0
C0
C0
C0
C0
C0
C0
C0
ENDCHAR

STARTCHAR Icircumflex
ENCODING 206
SWIDTH 263 0
DWIDTH 4 0
BBX 4 15 0 0
BITMAP
60
60
90
00
60
60
60
60
60
60
60
60
60
60
60
ENDCHAR

STARTCHAR Idiaeresis
ENCODING 207
SWIDTH 263 0
DWIDTH 4 0
BBX 4 14 0 0
BITMAP
90
90
00
60
60
60
60
60
60
60
60
60
60
60
ENDCHAR

STARTCHAR Eth
ENCODING 208
SWIDTH 724 0
DWIDTH 12 0
BBX 11 12 0 0
BITMAP
7F00
61C0
60C0
6060
6060
FC60
6060
6060
6060
60C0
61C0
7F00
ENDCHAR

STARTCHAR Ntilde
ENCODING 209
SWIDTH 734 0
DWIDTH 12 0
BBX 10 14 1 0
BITMAP
1C80
2700
0000
C0C0
E0C0
E0C0
F0C0
D8C0
CCC0
C6C0
C3C0
C1C0
C1C0
C0C0
ENDCHAR

STARTCHAR Ograve
ENCODING 210
SWIDTH 771 0
DWIDTH 13 0
BBX 11 15 1 0
BITMAP
0C00
0400
0200
0000
1F00
71C0
60C0
C060
C060
C060
C060
C060
60C0
71C0
1F00
ENDCHAR

STARTCHAR Oacute
ENCODING 211
SWIDTH 771 0
DWIDTH 13 0
BBX 11 15 1 0
BITMAP
0300
0200
0400
0000
1F00
71C0
60C0
C060
C060
C060
C060
C060
60C0
71C0
1F00
ENDCHAR

STARTCHAR Ocircumflex
ENCODING 212
SWIDTH 771 0
DWIDTH 13 0
BBX 11 15 1 0
BITMAP
0400
0E00
1100
0000
1F00
71C0
60C0
C060
C060
C060
C060
C060
60C0
71C0
1F00
ENDCHAR

STARTCHAR Otilde
ENCODING 213
SWIDTH 771 0
DWIDTH 13 0
BBX 11 14 1 0
BITMAP
1C80
2700
0000
1F00
71C0
60C0
C060
C060
C060
C060
C060
60C0
71C0
1F00
ENDCHAR

STARTCHAR Odiaeresis
ENCODING 214
SWIDTH 771 0
DWIDTH 13 0
BBX 11 14 1 0
BITMAP
1100
1100
0000
1F00
31C0
60C0
C060
C060
C060
C060
C060
60C0
71C0
1F00
ENDCHAR

STARTCHAR Multiplication
ENCODING 215
SWIDTH 833 0
DWIDTH 14 0
BBX 10 19 2 -4
BITMAP
0000
0000
0000
0000
0000
0000
6180
7380
3F00
1E00
1E00
3F00
7380
6180
0000
0000
0000
0000
0000
ENDCHAR

STARTCHAR Ooblique
ENCODING 216
SWIDTH 771 0
DWIDTH 13 0
BBX 11 14 1 -1
BITMAP
00C0
1F80
71C0
61C0
C360
C260
C660
CC60
C860
D860
70C0
71C0
3F00
6000
ENDCHAR

STARTCHAR Ugrave
ENCODING 217
SWIDTH 728 0
DWIDTH 12 0
BBX 10 15 1 0
BITMAP
1800
0800
0400
0000
C0C0
C0C0
C0C0
C0C0
C0C0
C0C0
C0C0
C0C0
6180
7380
1E00
ENDCHAR

STARTCHAR Uacute
ENCODING 218
SWIDTH 728 0
DWIDTH 12 0
BBX 10 15 1 0
BITMAP
0600
0400
0800
0000
C0C0
C0C0
C0C0
C0C0
C0C0
C0C0
C0C0
C0C0
6180
7380
1E00
ENDCHAR

STARTCHAR Ucircumflex
ENCODING 219
SWIDTH 728 0
DWIDTH 12 0
BBX 10 15 1 0
BITMAP
0C00
1E00
2100
0000
C0C0
C0C0
C0C0
C0C0
C0C0
C0C0
C0C0
C0C0
6180
7380
1E00
ENDCHAR

STARTCHAR Udiaeresis
ENCODING 220
SWIDTH 728 0
DWIDTH 12 0
BBX 10 14 1 0
BITMAP
1200
1200
0000
C0C0
C0C0
C0C0
C0C0
C0C0
C0C0
C0C0
C0C0
6180
7380
1E00
ENDCHAR

STARTCHAR Yacute
ENCODING 221
SWIDTH 657 0
DWIDTH 12 0
BBX 10 15 1 0
BITMAP
0600
0400
0800
0000
C0C0
C0C0
6180
3300
3300
1E00
0C00
0C00
0C00
0C00
0C00
ENDCHAR

STARTCHAR Thorn
ENCODING 222
SWIDTH 603 0
DWIDTH 10 0
BBX 8 12 1 0
BITMAP
C0
C0
FC
C6
C3
C3
C3
C6
FC
C0
C0
C0
ENDCHAR

STARTCHAR EsZetLigature
ENCODING 223
SWIDTH 644 0
DWIDTH 11 0
BBX 9 12 1 0
BITMAP
3C00
6600
C200
C600
CC00
CC00
C600
C300
C180
C180
D980
CF00
ENDCHAR

STARTCHAR agrave
ENCODING 224
SWIDTH 531 0
DWIDTH 9 0
BBX 7 12 1 0
BITMAP
30
10
08
00
3C
66
06
7E
C6
C6
CE
76
ENDCHAR

STARTCHAR aacute
ENCODING 225
SWIDTH 531 0
DWIDTH 9 0
BBX 7 12 1 0
BITMAP
0C
08
10
00
3C
66
06
7E
C6
C6
CE
76
ENDCHAR

STARTCHAR acircumflex
ENCODING 226
SWIDTH 531 0
DWIDTH 9 0
BBX 7 12 1 0
BITMAP
18
3C
42
00
3C
66
06
7E
C6
C6
CE
76
ENDCHAR

STARTCHAR atilde
ENCODING 227
SWIDTH 531 0
DWIDTH 9 0
BBX 7 11 1 0
BITMAP
32
4C
00
3C
66
06
7E
C6
C6
CE
76
ENDCHAR

STARTCHAR adiaeresis
ENCODING 228
SWIDTH 531 0
DWIDTH 9 0
BBX 7 11 1 0
BITMAP
24
24
00
3C
66
06
7E
C6
C6
CE
76
ENDCHAR

STARTCHAR abolle
ENCODING 229
SWIDTH 531 0
DWIDTH 9 0
BBX 7 13 1 0
BITMAP
18
24
24
18
00
3C
66
06
7E
C6
C6
CE
76
ENDCHAR

STARTCHAR aedihthong
ENCODING 230
SWIDTH 898 0
DWIDTH 15 0
BBX 13 8 1 0
BITMAP
3DE0
6730
0618
7FF8
C600
C618
CF30
79E0
ENDCHAR

STARTCHAR ccedilla
ENCODING 231
SWIDTH 516 0
DWIDTH 9 0
BBX 7 12 1 -4
BITMAP
3C
66
C2
C0
C0
C2
66
3C
10
18
44
38
ENDCHAR

STARTCHAR egrave
ENCODING 232
SWIDTH 551 0
DWIDTH 10 0
BBX 8 12 1 0
BITMAP
30
10
08
00
3C
66
C3
FF
C0
C3
66
3C
ENDCHAR

STARTCHAR eacute
ENCODING 233
SWIDTH 551 0
DWIDTH 10 0
BBX 8 12 1 0
BITMAP
0C
08
10
00
3C
66
C3
FF
C0
C3
66
3C
ENDCHAR

STARTCHAR ecircumflex
ENCODING 234
SWIDTH 551 0
DWIDTH 10 0
BBX 8 12 1 0
BITMAP
18
3C
42
00
3C
66
C3
FF
C0
C3
66
3C
ENDCHAR

STARTCHAR ediaeresis
ENCODING 235
SWIDTH 551 0
DWIDTH 10 0
BBX 8 11 1 0
BITMAP
24
24
00
3C
66
C3
FF
C0
C3
66
3C
ENDCHAR

STARTCHAR igrave
ENCODING 236
SWIDTH 250 0
DWIDTH 4 0
BBX 3 12 0 0
BITMAP
C0
40
20
00
60
60
60
60
60
60
60
60
ENDCHAR

STARTCHAR iacute
ENCODING 237
SWIDTH 250 0
DWIDTH 4 0
BBX 3 12 1 0
BITMAP
60
40
80
00
C0
C0
C0
C0
C0
C0
C0
C0
ENDCHAR

STARTCHAR icircumflex
ENCODING 238
SWIDTH 250 0
DWIDTH 4 0
BBX 4 12 0 0
BITMAP
60
60
90
00
60
60
60
60
60
60
60
60
ENDCHAR

STARTCHAR idiaeresis
ENCODING 239
SWIDTH 250 0
DWIDTH 4 0
BBX 4 11 0 0
BITMAP
90
90
00
60
60
60
60
60
60
60
60
ENDCHAR

STARTCHAR ethIcelandic
ENCODING 240
SWIDTH 602 0
DWIDTH 10 0
BBX 8 12 1 0
BITMAP
EC
38
EC
06
3E
67
C3
C3
C3
C3
66
3C
ENDCHAR

STARTCHAR ntilde
ENCODING 241
SWIDTH 588 0
DWIDTH 10 0
BBX 8 11 1 0
BITMAP
39
4E
00
DE
E3
C3
C3
C3
C3
C3
C3
ENDCHAR

STARTCHAR ograve
ENCODING 242
SWIDTH 602 0
DWIDTH 10 0
BBX 8 12 1 0
BITMAP
30
10
08
00
3C
66
C3
C3
C3
C3
66
3C
ENDCHAR

STARTCHAR oacute
ENCODING 243
SWIDTH 602 0
DWIDTH 10 0
BBX 8 12 1 0
BITMAP
0C
08
10
00
3C
66
C3
C3
C3
C3
66
3C
ENDCHAR

STARTCHAR ocircumflex
ENCODING 244
SWIDTH 602 0
DWIDTH 10 0
BBX 8 12 1 0
BITMAP
18
3C
42
00
3C
66
C3
C3
C3
C3
66
3C
ENDCHAR

STARTCHAR otilde
ENCODING 245
SWIDTH 602 0
DWIDTH 10 0
BBX 8 11 1 0
BITMAP
39
4E
00
3C
66
C3
C3
C3
C3
66
3C
ENDCHAR

STARTCHAR odiaeresis
ENCODING 246
SWIDTH 602 0
DWIDTH 10 0
BBX 8 11 1 0
BITMAP
24
24
00
3C
66
C3
C3
C3
C3
66
3C
ENDCHAR

STARTCHAR DivideSign
ENCODING 247
SWIDTH 331 0
DWIDTH 14 0
BBX 10 19 2 -4
BITMAP
0000
0000
0000
0000
0000
0C00
0C00
0000
0000
FFC0
FFC0
0000
0000
0C00
0C00
0000
0000
0000
0000
ENDCHAR

STARTCHAR ooblique
ENCODING 248
SWIDTH 602 0
DWIDTH 10 0
BBX 8 10 1 -1
BITMAP
02
3C
66
CB
CB
D3
D3
66
3C
40
ENDCHAR

STARTCHAR ugrave
ENCODING 249
SWIDTH 588 0
DWIDTH 10 0
BBX 8 12 1 0
BITMAP
30
10
08
00
C3
C3
C3
C3
C3
C3
C7
7B
ENDCHAR

STARTCHAR uacute
ENCODING 250
SWIDTH 588 0
DWIDTH 10 0
BBX 8 12 1 0
BITMAP
0C
08
10
00
C3
C3
C3
C3
C3
C3
C7
7B
ENDCHAR

STARTCHAR ucircumflex
ENCODING 251
SWIDTH 588 0
DWIDTH 10 0
BBX 8 12 1 0
BITMAP
18
3C
42
00
C3
C3
C3
C3
C3
C3
C7
7B
ENDCHAR

STARTCHAR udiaeresis
ENCODING 252
SWIDTH 588 0
DWIDTH 10 0
BBX 8 11 1 0
BITMAP
24
24
00
C3
C3
C3
C3
C3
C3
C7
7B
ENDCHAR

STARTCHAR yacute
ENCODING 253
SWIDTH 543 0
DWIDTH 10 0
BBX 8 15 1 -3
BITMAP
0C
08
10
00
C3
C3
66
66
24
3C
18
18
18
30
30
ENDCHAR

STARTCHAR thorn
ENCODING 254
SWIDTH 602 0
DWIDTH 10 0
BBX 8 15 1 -3
BITMAP
C0
C0
C0
C0
DC
E6
C3
C3
C3
C3
E6
DC
C0
C0
C0
ENDCHAR

STARTCHAR ydiaeresis
ENCODING 255
SWIDTH 543 0
DWIDTH 10 0
BBX 8 14 1 -3
BITMAP
24
24
00
C3
C3
66
66
24
3C
18
18
18
30
30
ENDCHAR
ENDFONT
